<svg width="29" height="24" viewBox="0 0 29 24" fill="none" xmlns="http://www.w3.org/2000/svg">
<path d="M2.66632 11.5608H3.35738L5.9066 22.9457C5.94306 23.1082 6.08715 23.2236 6.25365 23.2236H23.0665C23.233 23.2236 23.3771 23.1082 23.4135 22.9457L25.9628 11.5608H26.6538C27.5726 11.5608 28.3201 10.8134 28.3201 9.89462C28.3201 8.97587 27.5726 8.2283 26.6538 8.2283H25.1229C23.8914 5.44089 21.5922 3.25386 18.7518 2.16471C18.7553 2.1265 18.7634 2.08963 18.7634 2.05052C18.7634 1.34792 18.1918 0.77639 17.4892 0.77639H11.8307C11.1283 0.77639 10.5568 1.34792 10.5568 2.05052C10.5568 2.08965 10.5649 2.12656 10.5683 2.1648C7.72797 3.25386 5.42871 5.44099 4.19707 8.2283H2.66632C1.74757 8.2283 1 8.97587 1 9.89462C1 10.8134 1.74757 11.5608 2.66632 11.5608ZM22.7818 22.5125H6.53837L6.05171 20.3391H23.2684L22.7818 22.5125ZM23.4276 19.628H5.89251L5.39191 17.3922H23.9282L23.4276 19.628ZM24.0875 16.6811H5.23268L4.7321 14.4453H24.588L24.0875 16.6811ZM24.7473 13.7342H4.57287L4.08622 11.5608H25.2339L24.7473 13.7342ZM11.8307 1.4875H17.4892C17.7997 1.4875 18.0523 1.74011 18.0523 2.05052C18.0523 2.12641 18.0367 2.19863 18.0094 2.26476C18.0086 2.26686 18.0068 2.26819 18.0061 2.27031C18.0057 2.27144 18.006 2.27261 18.0056 2.27374C17.9189 2.47326 17.7203 2.61337 17.4892 2.61337H11.8307C11.5989 2.61337 11.3997 2.47248 11.3135 2.27196C11.3134 2.27153 11.3135 2.27109 11.3134 2.27066C11.313 2.26958 11.3121 2.2689 11.3117 2.26784C11.2836 2.20093 11.2679 2.12754 11.2679 2.05052C11.2679 1.74011 11.5203 1.4875 11.8307 1.4875ZM10.8278 2.82669C11.0611 3.1273 11.4217 3.32448 11.8307 3.32448H17.4892C17.8984 3.32448 18.2591 3.12726 18.4924 2.82663C21.0606 3.8099 23.1601 5.74868 24.3439 8.2283H4.97604C6.15996 5.74874 8.25957 3.80987 10.8278 2.82669ZM2.66632 8.93941H4.42604C4.42632 8.93941 4.42663 8.93958 4.42691 8.93958C4.42732 8.93958 4.42767 8.93941 4.42808 8.93941H24.8919C24.8923 8.93941 24.8926 8.93958 24.8931 8.93958C24.8933 8.93958 24.8936 8.93941 24.8939 8.93941H26.6538C27.1806 8.93941 27.609 9.36788 27.609 9.89462C27.609 10.4212 27.1806 10.8497 26.6538 10.8497H2.66632C2.13958 10.8497 1.71111 10.4212 1.71111 9.89462C1.71111 9.36788 2.13958 8.93941 2.66632 8.93941Z" fill="#2B2725" stroke="#2B2725" stroke-width="0.75"/>
</svg>
