<svg width="39" height="34" viewBox="0 0 39 34" fill="none" xmlns="http://www.w3.org/2000/svg">
<path d="M38.9952 16.7781C39.0026 16.1901 38.9828 15.6193 38.949 15.0657C38.9592 15.0131 38.9642 14.9587 38.9642 14.9038C38.9642 14.8912 38.9642 14.8786 38.9637 14.8661C38.9051 13.4745 38.8685 12.6543 38.7101 12.1888C37.949 7.30549 33.5836 3.73482 29.6087 1.98523C26.6158 0.668607 23.2849 0.000571633 19.7078 0.000571633C19.7078 0.000571633 19.4526 0 19.452 0L19.2937 0.000571633C15.7149 0.000571633 12.3839 0.668035 9.39163 1.98523C5.29616 3.78801 0.787699 7.52168 0.231043 12.6338C0.229916 12.6429 0.228789 12.6515 0.227662 12.6606C0.219211 12.7384 0.203435 12.8133 0.196674 12.8917C0.190477 12.9643 0.18597 13.0358 0.180336 13.1085C0.16625 13.2675 0.152164 13.4402 0.136389 13.6329C0.035537 14.8666 0.0355371 14.8666 0.0355371 14.9032C0.0355371 14.9587 0.0411712 15.0125 0.0513127 15.0651C0.0175077 15.6222 -0.00277489 16.1884 0.00454953 16.7558C-0.0320726 19.4542 0.122304 23.1627 1.59282 26.4137C1.60916 26.4577 1.63001 26.4995 1.65311 26.5401C1.96355 27.2081 2.32583 27.8573 2.75966 28.4716C5.08375 31.7625 9.39163 33.5362 15.9171 33.8948C16.9532 33.9663 19.4954 34 19.4954 34C19.4954 34 22.0465 33.9663 23.0708 33.8948C29.6087 33.5362 33.9166 31.762 36.2401 28.4716C38.8048 24.8385 39.0409 20.045 38.9952 16.7781ZM22.9672 32.1823C21.9699 32.2516 19.4954 32.2847 19.4954 32.2847C19.4954 32.2847 17.0299 32.2516 16.0208 32.1818C10.1117 31.8575 6.11198 30.2726 4.13327 27.4718C3.96988 27.2401 3.81944 27.0005 3.6769 26.7574C4.65048 26.4137 5.59702 25.5769 6.05114 23.7415C6.07762 23.634 6.10579 23.5042 6.13678 23.3583C6.55089 21.4355 7.11994 20.2755 8.65525 20.43C9.6001 20.5261 9.96745 21.73 10.421 23.5574C10.8396 25.2435 11.3134 27.1538 13.0014 27.4146C15.485 27.7978 16.3617 25.6519 16.5735 25.2052C16.7854 24.7585 16.8997 24.5703 17.2288 23.8108C17.5578 23.0501 18.3308 22.1979 18.9568 22.3151C19.825 22.4758 19.8999 22.8053 20.1202 23.7822C20.1202 23.7822 20.2988 24.5634 20.349 24.7951C20.6419 26.1643 21.0059 27.8682 22.2618 28.7844C22.8691 29.2282 23.6033 29.4427 24.3447 29.4427C25.4124 29.4427 26.4958 28.9989 27.2429 28.1558C28.043 27.2527 28.4205 25.9516 28.7856 24.6927C29.2605 23.0541 29.6267 21.9708 30.3609 21.8438C31.3395 21.6722 31.7722 22.4867 32.3159 24.2569C32.4252 24.6126 32.5283 24.9489 32.6478 25.2252L32.6816 25.3041C33.0151 26.0808 33.5312 27.2808 34.684 27.7086C32.6495 30.3596 28.7174 31.8672 22.9672 32.1823ZM35.653 26.1557C35.6373 26.1546 35.6215 26.1512 35.6057 26.1512C34.9893 26.1512 34.6958 25.6988 34.2315 24.6178C34.2315 24.6178 34.0259 24.055 33.9307 23.7461C33.4963 22.3311 32.6872 19.7007 30.0769 20.152C28.2492 20.4689 27.6728 22.4547 27.1652 24.2077C26.853 25.2829 26.5308 26.3942 25.9871 27.0079C25.3048 27.7778 24.0258 27.9585 23.2494 27.3906C22.5215 26.8592 22.233 25.5123 22.002 24.4302C21.9485 24.1819 21.7688 23.3972 21.7688 23.3972C21.5395 22.3815 21.2245 20.9899 19.2616 20.6256C17.4581 20.2881 16.5031 21.7861 15.7825 22.9208C15.556 23.2766 15.3841 23.6821 15.2185 24.0738C14.6568 25.4002 14.3446 25.8875 13.2567 25.7176C12.6797 25.6284 12.3513 24.3049 12.0611 23.1376C11.598 21.269 11.0205 18.944 8.82371 18.7221C5.47082 18.3841 4.75809 21.7311 4.48709 22.9906C4.46005 23.117 4.43582 23.2297 4.41272 23.3229C4.1389 24.4325 3.67464 25.0136 2.91629 25.188C1.78664 22.362 1.66325 19.1488 1.69593 16.7563C1.68635 16.018 1.84072 13.5483 1.88242 13.0324C2.24807 8.53746 6.51877 5.12007 10.0644 3.5598C12.8437 2.33641 15.9481 1.71641 19.2942 1.71641H19.7084C23.0534 1.71641 26.1578 2.33641 28.9371 3.5598C30.3011 4.15977 31.7705 5.03714 33.0856 6.14329C34.4935 7.53484 34.875 9.05336 34.9189 10.1618C34.8981 10.2373 34.8862 10.3168 34.8862 10.3992C34.8862 14.2341 28.6346 17.4741 21.2352 17.4741C13.9964 17.4741 7.85632 14.3736 7.59208 10.6485C7.61574 10.5696 7.62814 10.4861 7.62814 10.3992C7.62814 7.4256 12.5496 4.91417 18.3753 4.91417C24.0568 4.91417 28.8791 7.30377 29.114 10.1801C29.096 10.2504 29.0859 10.3237 29.0859 10.3997C29.0859 12.2831 25.9307 14.3004 21.2347 14.3004C16.7087 14.3004 13.6144 12.4273 13.3958 10.6056C13.4116 10.5399 13.4201 10.4706 13.4201 10.3997C13.4201 9.30673 15.5391 8.08391 18.3753 8.08391C21.0403 8.08391 23.0731 9.16317 23.3086 10.2007C23.2934 10.2642 23.2855 10.3311 23.2855 10.3997C23.2855 10.5805 22.5581 11.1267 21.2347 11.1267C19.9106 11.1267 19.1833 10.5805 19.1833 10.3997C19.1833 9.92558 18.8046 9.5418 18.3381 9.5418C17.8716 9.5418 17.493 9.92558 17.493 10.3997C17.493 11.7924 19.101 12.8425 21.2347 12.8425C23.1694 12.8425 24.6726 11.9783 24.9346 10.7778C24.9904 10.664 25.0208 10.5353 25.0208 10.3997C25.0208 8.13881 22.1012 6.36807 18.3747 6.36807C14.8173 6.36807 11.9957 7.9821 11.7467 10.0954C11.7112 10.1898 11.6921 10.2928 11.6921 10.3997C11.6921 13.5489 15.8833 16.0162 21.2341 16.0162C26.4203 16.0162 30.5175 13.6981 30.7637 10.6874C30.7953 10.5976 30.8122 10.501 30.8122 10.4003C30.8122 6.36234 25.3493 3.19948 18.3747 3.19948C11.5783 3.19948 6.21622 6.20334 5.94747 10.0937C5.91197 10.1892 5.89169 10.2928 5.89169 10.4009C5.89169 15.3305 12.6307 19.1917 21.2335 19.1917C29.6498 19.1917 36.2813 15.4952 36.5641 10.7189C36.8559 11.4533 37.0514 12.2254 37.1174 13.0341C37.1591 13.5512 37.3134 16.022 37.3039 16.7815C37.3422 19.4296 37.1884 23.1198 35.653 26.1557Z" fill="white"/>
</svg>
