<svg width="106" height="63" viewBox="0 0 106 63" fill="none" xmlns="http://www.w3.org/2000/svg">
<path d="M19.985 22.384C21.371 21.46 22.064 20.074 22.064 18.325C22.064 16.708 21.371 15.289 20.084 14.233C19.16 13.507 18.104 13.144 17.246 12.88C16.916 12.781 15.86 12.583 15.629 12.55C15.2 12.484 14.837 12.451 14.408 12.418C11.537 12.154 8.633 12.682 6.521 13.936C4.97 14.827 2.957 16.609 2.462 19.843C2.264 21.163 2.396 22.45 2.858 23.638C3.419 24.925 4.343 26.014 5.531 26.674C6.356 27.202 7.346 27.532 8.369 27.631C8.204 28.258 8.039 28.819 7.841 29.38C7.709 29.743 7.577 30.073 7.412 30.403L7.016 30.172C5.993 29.578 4.343 29.083 2.99 29.446C2.198 29.644 1.538 30.106 1.142 30.832C0.713 31.657 0.614 32.647 1.01 33.538C1.406 34.33 2.132 34.924 2.99 35.089C4.508 35.353 5.96 34.825 7.181 33.604C7.445 33.34 7.643 33.142 7.841 32.845C8.303 33.208 8.732 33.538 9.194 33.868C10.514 34.759 11.735 35.353 13.022 35.683C13.682 35.815 14.375 35.914 15.002 35.914C17.18 35.914 19.259 35.023 20.711 33.439C22.889 31.129 23.285 26.971 21.371 24.397C20.876 23.704 20.183 23.11 19.457 22.714L19.985 22.384ZM18.962 15.586C19.919 16.345 20.315 17.203 20.315 18.325C20.315 19.546 19.886 20.371 19.028 20.965C18.071 21.592 16.817 21.757 15.893 21.757C15.2 21.757 14.903 22.483 15.101 23.011C15.233 23.209 15.497 23.539 15.926 23.539C17.675 23.572 19.094 24.265 19.919 25.42C21.338 27.367 21.107 30.502 19.424 32.284C17.972 33.868 15.761 34.495 13.418 33.967C12.395 33.736 11.339 33.274 10.184 32.449C9.722 32.185 9.359 31.789 8.93 31.525L8.798 31.393H8.765C9.029 30.964 9.26 30.436 9.425 29.974C9.722 29.215 9.953 28.423 10.118 27.631C11.339 27.466 12.428 26.938 13.121 26.047C13.418 25.684 13.352 25.189 12.989 24.892C12.593 24.595 12.098 24.628 11.768 25.024C11.471 25.42 11.075 25.651 10.547 25.816C10.844 24.43 11.075 23.044 11.339 21.724L11.471 20.833C11.801 18.952 12.527 16.543 13.946 15.124C14.705 14.431 15.365 14.299 15.365 14.299C15.497 14.299 15.893 14.365 15.926 14.365C16.454 14.464 16.982 14.596 17.477 14.728C17.906 14.893 18.335 15.157 18.797 15.454L18.896 15.553C18.929 15.553 18.962 15.553 18.962 15.586ZM7.379 15.421C8.897 14.497 10.943 13.936 13.022 13.705C11.702 14.728 10.415 16.84 9.755 20.536L9.59 21.46C9.326 22.912 9.128 24.463 8.798 25.981C7.874 25.882 7.049 25.585 6.389 25.222C5.564 24.694 4.871 23.935 4.475 22.978C4.079 22.12 3.98 21.163 4.145 20.107C4.508 17.566 6.092 16.147 7.379 15.421ZM6.488 31.822C6.323 32.053 6.158 32.218 5.96 32.383C5.069 33.274 4.211 33.538 3.32 33.406C3.023 33.307 2.726 33.142 2.594 32.812C2.429 32.449 2.462 32.053 2.66 31.657C2.924 31.228 3.386 31.03 4.013 31.03C4.739 31.03 5.531 31.294 6.125 31.624C6.224 31.657 6.323 31.723 6.389 31.789L6.488 31.822ZM38.4147 28.588C38.5137 28.159 38.2497 27.664 37.8207 27.532C37.3257 27.433 36.8637 27.697 36.7317 28.159L36.2367 30.007L36.0717 30.568C35.7417 31.525 35.3787 32.185 34.9827 32.548C34.4877 32.977 33.7617 33.241 32.8047 33.043C32.2437 32.977 31.8807 32.647 31.6827 32.251C31.4847 31.756 31.5507 31.162 31.7817 30.337C31.7817 30.337 31.9797 29.644 32.2437 28.687L32.3427 28.225L32.8707 26.41L33.6627 23.473C33.7947 23.011 33.4977 22.516 33.0687 22.417C32.5737 22.285 32.1447 22.549 32.0127 23.044L31.2207 25.948L30.6927 27.763L30.5277 28.324L30.4287 28.786L30.0657 29.974L29.9007 30.568C29.5707 31.525 29.1747 32.152 28.7457 32.548C28.2507 32.977 27.4587 33.241 26.4687 33.043C25.8747 32.977 25.4457 32.614 25.2807 32.218C25.0497 31.756 25.1487 31.162 25.3467 30.37C25.3467 30.337 25.6107 29.413 25.9737 28.225L26.5017 26.41L27.3267 23.473C27.4587 23.044 27.1947 22.549 26.7327 22.417C26.2707 22.285 25.8087 22.549 25.6767 23.011L24.8517 25.948L24.3237 27.763C23.6637 29.908 23.6967 29.908 23.6967 29.908C23.4657 30.7 23.2017 31.855 23.6967 32.944C24.1257 33.934 25.0497 34.594 26.1717 34.726C26.5017 34.792 26.7987 34.825 27.0627 34.825C28.1517 34.825 29.1417 34.495 29.9007 33.802C30.0657 33.67 30.1977 33.538 30.3297 33.373C30.8247 34.099 31.6167 34.594 32.5077 34.726C32.8377 34.792 33.1017 34.825 33.3987 34.825C34.4547 34.825 35.4117 34.495 36.1707 33.802C36.8307 33.142 37.3257 32.251 37.6887 31.129C37.7547 30.898 37.8207 30.7 37.8867 30.436L38.2167 29.248L38.4147 28.588ZM50.7859 28.621C50.9179 28.159 50.6539 27.697 50.1919 27.565C49.7299 27.433 49.2679 27.697 49.1359 28.159L48.6079 30.007C48.5749 30.205 48.5089 30.403 48.4429 30.568C48.1459 31.558 47.7829 32.185 47.3539 32.548C46.8589 32.977 46.1329 33.241 45.2089 33.076C44.6479 32.977 44.2519 32.647 44.0539 32.251C43.8559 31.756 43.9219 31.129 44.1529 30.37L44.7469 28.225L45.1429 26.806C45.3739 26.014 45.6379 24.859 45.1429 23.803C44.7139 22.813 43.7899 22.153 42.7009 21.988C41.5129 21.79 40.3579 21.988 39.4669 22.582C39.3019 22.483 39.1369 22.417 38.9389 22.417C38.5759 22.417 38.2129 22.648 38.1139 23.044V23.11L35.2099 33.67C35.0779 34.198 35.4739 34.726 36.0679 34.726C36.4309 34.726 36.7939 34.495 36.8929 34.099L38.8729 26.773L38.9059 26.74C39.1699 25.75 39.5329 24.793 40.1599 24.199C40.6879 23.737 41.4469 23.506 42.4369 23.671C42.9979 23.77 43.3939 24.1 43.5589 24.496C43.7899 24.991 43.7239 25.618 43.4929 26.344L43.0969 27.763L42.9649 28.159C42.8989 28.423 42.7339 29.017 42.5029 29.908C42.2719 30.7 42.0079 31.855 42.5029 32.944C42.9319 33.934 43.8229 34.594 44.8789 34.759C45.2089 34.825 45.5059 34.858 45.7699 34.858C46.8589 34.858 47.7829 34.495 48.5419 33.802C49.2349 33.142 49.6969 32.251 50.0929 31.129L50.2909 30.436L50.6209 29.248L50.7859 28.621ZM74.7702 22.384C76.1562 21.46 76.8492 20.074 76.8492 18.325C76.8492 16.708 76.1562 15.289 74.8692 14.233C73.9452 13.507 72.8892 13.144 72.0312 12.88C71.7012 12.781 70.6452 12.583 70.4142 12.55C69.9852 12.484 69.6222 12.451 69.1932 12.418C66.3222 12.154 63.4182 12.682 61.3062 13.936C59.7552 14.827 57.7422 16.609 57.2472 19.843C57.0492 21.163 57.1812 22.45 57.6432 23.638C58.2042 24.925 59.1282 26.014 60.3162 26.674C61.1412 27.202 62.1312 27.532 63.1542 27.631C62.9892 28.258 62.8242 28.819 62.6262 29.38C62.4942 29.743 62.3622 30.073 62.1972 30.403L61.8012 30.172C60.7782 29.578 59.1282 29.083 57.7752 29.446C56.9832 29.644 56.3232 30.106 55.9272 30.832C55.4982 31.657 55.3992 32.647 55.7952 33.538C56.1912 34.33 56.9172 34.924 57.7752 35.089C59.2932 35.353 60.7452 34.825 61.9662 33.604C62.2302 33.34 62.4282 33.142 62.6262 32.845C63.0882 33.208 63.5172 33.538 63.9792 33.868C65.2992 34.759 66.5202 35.353 67.8072 35.683C68.4672 35.815 69.1602 35.914 69.7872 35.914C71.9652 35.914 74.0442 35.023 75.4962 33.439C77.6742 31.129 78.0702 26.971 76.1562 24.397C75.6612 23.704 74.9682 23.11 74.2422 22.714L74.7702 22.384ZM73.7472 15.586C74.7042 16.345 75.1002 17.203 75.1002 18.325C75.1002 19.546 74.6712 20.371 73.8132 20.965C72.8562 21.592 71.6022 21.757 70.6782 21.757C69.9852 21.757 69.6882 22.483 69.8862 23.011C70.0182 23.209 70.2822 23.539 70.7112 23.539C72.4602 23.572 73.8792 24.265 74.7042 25.42C76.1232 27.367 75.8922 30.502 74.2092 32.284C72.7572 33.868 70.5462 34.495 68.2032 33.967C67.1802 33.736 66.1242 33.274 64.9692 32.449C64.5072 32.185 64.1442 31.789 63.7152 31.525L63.5832 31.393H63.5502C63.8142 30.964 64.0452 30.436 64.2102 29.974C64.5072 29.215 64.7382 28.423 64.9032 27.631C66.1242 27.466 67.2132 26.938 67.9062 26.047C68.2032 25.684 68.1372 25.189 67.7742 24.892C67.3782 24.595 66.8832 24.628 66.5532 25.024C66.2562 25.42 65.8602 25.651 65.3322 25.816C65.6292 24.43 65.8602 23.044 66.1242 21.724L66.2562 20.833C66.5862 18.952 67.3122 16.543 68.7312 15.124C69.4902 14.431 70.1502 14.299 70.1502 14.299C70.2822 14.299 70.6782 14.365 70.7112 14.365C71.2392 14.464 71.7672 14.596 72.2622 14.728C72.6912 14.893 73.1202 15.157 73.5822 15.454L73.6812 15.553C73.7142 15.553 73.7472 15.553 73.7472 15.586ZM62.1642 15.421C63.6822 14.497 65.7282 13.936 67.8072 13.705C66.4872 14.728 65.2002 16.84 64.5402 20.536L64.3752 21.46C64.1112 22.912 63.9132 24.463 63.5832 25.981C62.6592 25.882 61.8342 25.585 61.1742 25.222C60.3492 24.694 59.6562 23.935 59.2602 22.978C58.8642 22.12 58.7652 21.163 58.9302 20.107C59.2932 17.566 60.8772 16.147 62.1642 15.421ZM61.2732 31.822C61.1082 32.053 60.9432 32.218 60.7452 32.383C59.8542 33.274 58.9962 33.538 58.1052 33.406C57.8082 33.307 57.5112 33.142 57.3792 32.812C57.2142 32.449 57.2472 32.053 57.4452 31.657C57.7092 31.228 58.1712 31.03 58.7982 31.03C59.5242 31.03 60.3162 31.294 60.9102 31.624C61.0092 31.657 61.1082 31.723 61.1742 31.789L61.2732 31.822ZM93.1999 28.588C93.2989 28.159 93.0349 27.664 92.6059 27.532C92.1109 27.433 91.6489 27.697 91.5169 28.159L91.0219 30.007L90.8569 30.568C90.5269 31.525 90.1639 32.185 89.7679 32.548C89.2729 32.977 88.5469 33.241 87.5899 33.043C87.0289 32.977 86.6659 32.647 86.4679 32.251C86.2699 31.756 86.3359 31.162 86.5669 30.337C86.5669 30.337 86.7649 29.644 87.0289 28.687L87.1279 28.225L87.6559 26.41L88.4479 23.473C88.5799 23.011 88.2829 22.516 87.8539 22.417C87.3589 22.285 86.9299 22.549 86.7979 23.044L86.0059 25.948L85.4779 27.763L85.3129 28.324L85.2139 28.786L84.8509 29.974L84.6859 30.568C84.3559 31.525 83.9599 32.152 83.5309 32.548C83.0359 32.977 82.2439 33.241 81.2539 33.043C80.6599 32.977 80.2309 32.614 80.0659 32.218C79.8349 31.756 79.9339 31.162 80.1319 30.37C80.1319 30.337 80.3959 29.413 80.7589 28.225L81.2869 26.41L82.1119 23.473C82.2439 23.044 81.9799 22.549 81.5179 22.417C81.0559 22.285 80.5939 22.549 80.4619 23.011L79.6369 25.948L79.1089 27.763C78.4489 29.908 78.4819 29.908 78.4819 29.908C78.2509 30.7 77.9869 31.855 78.4819 32.944C78.9109 33.934 79.8349 34.594 80.9569 34.726C81.2869 34.792 81.5839 34.825 81.8479 34.825C82.9369 34.825 83.9269 34.495 84.6859 33.802C84.8509 33.67 84.9829 33.538 85.1149 33.373C85.6099 34.099 86.4019 34.594 87.2929 34.726C87.6229 34.792 87.8869 34.825 88.1839 34.825C89.2399 34.825 90.1969 34.495 90.9559 33.802C91.6159 33.142 92.1109 32.251 92.4739 31.129C92.5399 30.898 92.6059 30.7 92.6719 30.436L93.0019 29.248L93.1999 28.588ZM105.571 28.621C105.703 28.159 105.439 27.697 104.977 27.565C104.515 27.433 104.053 27.697 103.921 28.159L103.393 30.007C103.36 30.205 103.294 30.403 103.228 30.568C102.931 31.558 102.568 32.185 102.139 32.548C101.644 32.977 100.918 33.241 99.994 33.076C99.433 32.977 99.037 32.647 98.839 32.251C98.641 31.756 98.707 31.129 98.938 30.37L99.532 28.225L99.928 26.806C100.159 26.014 100.423 24.859 99.928 23.803C99.499 22.813 98.575 22.153 97.486 21.988C96.298 21.79 95.143 21.988 94.252 22.582C94.087 22.483 93.922 22.417 93.724 22.417C93.361 22.417 92.998 22.648 92.899 23.044V23.11L89.995 33.67C89.863 34.198 90.259 34.726 90.853 34.726C91.216 34.726 91.579 34.495 91.678 34.099L93.658 26.773L93.691 26.74C93.955 25.75 94.318 24.793 94.945 24.199C95.473 23.737 96.232 23.506 97.222 23.671C97.783 23.77 98.179 24.1 98.344 24.496C98.575 24.991 98.509 25.618 98.278 26.344L97.882 27.763L97.75 28.159C97.684 28.423 97.519 29.017 97.288 29.908C97.057 30.7 96.793 31.855 97.288 32.944C97.717 33.934 98.608 34.594 99.664 34.759C99.994 34.825 100.291 34.858 100.555 34.858C101.644 34.858 102.568 34.495 103.327 33.802C104.02 33.142 104.482 32.251 104.878 31.129L105.076 30.436L105.406 29.248L105.571 28.621Z" fill="#2B2725"/>
<path d="M24.601 42.992C25.004 42.979 25.459 42.992 25.862 43.291C26.265 43.577 26.434 43.967 26.356 44.435C26.278 44.955 25.992 45.371 25.459 45.488C24.835 45.631 24.198 45.683 23.561 45.553C23.171 45.475 22.976 45.215 22.911 44.643C22.885 44.318 22.937 43.993 23.002 43.681C23.106 43.213 23.457 43.005 24.094 42.992C24.237 42.979 24.38 42.992 24.601 42.992ZM24.341 49.778C24.172 49.765 23.912 49.817 23.652 49.739C23.158 49.596 23.067 49.479 22.963 48.998C22.872 48.53 22.924 48.062 22.989 47.607C23.054 47.152 23.444 47.009 23.834 46.983C24.393 46.944 24.965 46.918 25.524 47.074C26.096 47.23 26.369 47.62 26.434 48.179C26.512 49.063 26.161 49.479 25.524 49.687C25.173 49.791 24.809 49.804 24.341 49.778ZM24.055 41.692C23.613 41.731 23.119 41.705 22.638 41.744C21.845 41.822 21.715 42.238 21.689 42.758C21.637 44.149 21.715 45.527 21.624 46.918C21.559 47.971 21.728 49.024 21.676 50.09C21.676 50.09 21.676 50.103 21.676 50.116C21.715 50.675 22.053 51.026 22.573 51.078C23.223 51.156 23.873 51.169 24.523 51.13C24.978 51.104 25.433 51.104 25.888 50.987C26.694 50.766 27.201 50.233 27.461 49.466C27.76 48.582 27.786 47.711 27.227 46.905C26.941 46.476 26.941 46.047 27.175 45.605C27.448 45.098 27.604 44.565 27.539 43.98C27.448 43.07 26.928 42.212 26.005 41.874C25.381 41.653 24.731 41.718 24.055 41.692ZM32.829 45.696C33.063 46.164 33.219 46.658 33.323 47.165C33.388 47.477 33.05 47.841 32.712 47.867C32.608 47.88 32.517 47.867 32.413 47.867C31.854 47.867 31.62 47.724 31.477 47.334C31.451 47.243 31.451 47.165 31.464 47.1C31.477 47.022 31.503 46.957 31.516 46.892C31.62 46.476 31.763 46.073 31.958 45.696C32.049 45.527 32.166 45.332 32.4 45.319C32.53 45.319 32.621 45.371 32.686 45.449C32.751 45.514 32.79 45.605 32.829 45.696ZM35.702 51.013C35.728 51 35.741 50.961 35.715 50.844C35.715 50.675 35.624 50.246 35.585 50.129C35.234 48.933 34.831 47.763 34.415 46.593C33.973 45.345 33.557 44.071 33.128 42.81C33.05 42.576 32.972 42.329 32.803 42.134C32.556 41.835 32.257 41.718 31.945 42.134C31.815 42.303 31.724 42.498 31.659 42.706C31.178 44.097 30.697 45.488 30.216 46.892C29.826 48.01 29.423 49.128 29.046 50.259C28.929 50.623 28.929 50.792 28.981 50.87C29.007 50.909 29.059 50.935 29.124 50.948C29.189 50.961 29.267 50.974 29.358 50.987C29.605 51.013 29.917 51.013 30.099 50.779C30.164 50.688 30.216 50.571 30.268 50.441C30.32 50.311 30.359 50.181 30.411 50.064C30.619 49.583 31.035 49.401 31.503 49.388C32.088 49.362 32.686 49.362 33.271 49.375C33.726 49.388 34.09 49.57 34.285 49.999C34.415 50.259 34.519 50.506 34.649 50.753C34.896 51.182 35.195 51.143 35.468 51.078C35.533 51.065 35.585 51.052 35.624 51.052C35.663 51.039 35.689 51.026 35.702 51.013ZM37.2059 49.531C37.2059 49.804 37.1799 50.233 37.2449 50.493C37.2449 50.909 37.2059 51.039 37.8169 51.013C38.1029 51.039 38.2329 51.065 38.2979 50.805C38.3369 50.623 38.3889 50.038 38.3889 49.83C38.3759 49.258 38.3889 48.686 38.3759 48.114C38.3629 47.438 38.7139 46.944 39.1559 46.502C39.4289 46.216 39.8189 46.242 40.0139 46.502C40.1439 46.684 40.2479 46.866 40.3519 47.074C40.8849 48.127 41.4179 49.193 41.9509 50.259C42.0419 50.415 42.1589 50.662 42.2889 50.779C42.4189 51.221 42.7439 51.104 43.0299 50.948C43.4589 50.714 43.2249 50.48 43.1339 50.207C42.9519 49.674 42.6919 49.193 42.4579 48.699C41.9899 47.646 41.4829 46.619 41.0149 45.579C40.9369 45.41 40.8589 45.241 40.8329 45.033C40.7939 44.552 41.0669 44.214 41.3399 43.876C41.6649 43.447 42.0809 43.083 42.3149 42.576C42.4059 42.368 42.6009 42.277 42.2759 41.978C42.0679 41.796 41.7819 41.653 41.4699 41.887C41.1579 42.147 41.0149 42.277 40.7809 42.563C40.2869 43.161 39.8059 43.785 39.2339 44.318C39.0779 44.461 38.8959 44.591 38.6879 44.513C38.4799 44.422 38.4799 44.188 38.4409 43.993C38.4409 43.967 38.4409 43.954 38.4409 43.928C38.3889 43.434 38.4019 42.953 38.3759 42.459C38.3369 41.731 38.1029 41.848 37.8689 41.809C37.6349 41.783 37.1669 41.809 37.2189 42.316C37.1929 42.511 37.2059 42.68 37.2059 42.888C37.2189 44.032 37.2059 45.189 37.2059 46.333V49.531ZM44.6987 46.489C44.6987 47.659 44.6857 48.829 44.6987 49.999C44.7247 50.727 44.9197 51.091 45.8167 51.117C46.1677 51.13 46.5057 51.039 46.8567 51.052C47.4417 51.065 48.0267 51.052 48.6117 51.052C48.8847 51.065 49.3397 51.091 49.5997 51.026C49.8597 50.948 49.8857 50.779 49.9377 50.493C50.0027 50.09 49.8857 49.791 49.4827 49.739C49.1447 49.609 48.8847 49.661 48.3647 49.661C47.7797 49.661 47.3377 49.713 46.7657 49.7C46.1547 49.687 45.9337 49.44 45.8817 48.829C45.8427 48.322 45.8557 47.815 45.8687 47.308C45.8947 46.866 46.0377 46.489 46.6097 46.398C46.9477 46.333 47.2987 46.372 47.6367 46.346C48.0137 46.333 48.3907 46.372 48.7547 46.242C49.2097 46.307 49.1057 45.67 49.0537 45.202C49.0147 44.916 48.5077 44.968 48.2217 44.955C47.7407 44.929 47.2597 44.942 46.7787 44.942C46.4277 44.942 46.1027 44.76 46.0117 44.5C45.7907 43.837 46.1027 43.213 46.8697 43.161C47.6237 43.122 48.3647 43.096 49.1057 43.109C49.2617 43.109 49.5477 43.096 49.6777 43.031C49.8987 42.953 49.9247 42.784 49.9377 42.524C49.9637 42.251 49.9897 41.991 49.7037 41.861C49.5087 41.77 49.1967 41.77 48.9757 41.77C47.9357 41.757 46.8827 41.744 45.8427 41.77C45.4397 41.783 45.0367 41.861 44.8417 42.264C44.7377 42.485 44.6987 42.732 44.6987 42.966C44.6987 44.136 44.6987 45.306 44.6987 46.489ZM59.0279 51.208C59.9509 51.182 60.6399 50.974 61.1729 50.376C61.5239 49.986 61.7319 49.531 61.8359 49.037C62.1479 47.529 61.6279 46.502 60.2759 45.904C59.6649 45.644 59.0149 45.449 58.3909 45.215C57.7669 44.968 57.4419 44.383 57.5849 43.837C57.7409 43.239 58.4039 42.927 58.9759 42.875C59.5089 42.836 59.9769 43.2 60.1849 43.798C60.2629 43.993 60.3799 44.318 60.5359 44.461C60.6919 44.604 60.8089 44.539 61.0169 44.435C61.2119 44.344 61.4849 44.24 61.4849 44.019C61.4849 43.85 61.4589 43.603 61.3029 43.265C61.0429 42.667 61.0039 42.628 60.6139 42.199C59.9509 41.64 59.1709 41.497 58.3519 41.653C57.8189 41.744 57.3249 41.978 56.9609 42.394C56.6359 42.784 56.4539 43.252 56.3629 43.785C56.1549 44.929 56.6489 45.826 57.6499 46.346C58.2999 46.697 59.0019 46.918 59.6779 47.191C60.2759 47.425 60.6919 47.88 60.6919 48.387C60.6789 49.323 59.9379 49.908 59.0149 49.83C58.1439 49.752 57.5589 49.232 57.2469 48.413C57.1819 48.244 57.1039 48.088 56.9869 47.945C56.8439 47.737 56.8049 47.633 56.4279 47.763C56.2589 47.828 55.9729 48.062 55.9599 48.27C55.9079 48.842 56.2329 49.284 56.5189 49.765C57.1169 50.779 58.0789 51.104 59.0279 51.208ZM69.9409 46.112C69.9409 45.15 69.9409 44.188 69.9409 43.226C69.9409 42.953 69.9929 42.472 69.9279 42.199C69.8759 41.952 69.5509 41.874 69.3429 41.874C69.0959 41.874 68.7579 41.887 68.8229 42.407C68.7449 42.771 68.7839 43.135 68.7709 43.486C68.7449 44.11 68.4459 44.487 67.8999 44.487C67.1589 44.5 66.4179 44.5 65.6899 44.487C65.2479 44.487 64.9359 44.188 64.8839 43.811C64.8319 43.408 64.8189 43.005 64.8319 42.602C64.8319 42.42 64.8709 42.199 64.7799 42.043C64.6889 41.887 64.4549 41.796 64.2469 41.822C64.0259 41.835 63.7659 41.796 63.7139 42.043C63.6619 42.277 63.6619 42.641 63.6619 42.875C63.6489 45.241 63.6879 47.594 63.5969 49.96C63.5839 50.129 63.5839 50.714 63.6489 50.857C63.7269 51.078 63.9739 50.961 64.2339 50.974C64.4809 50.987 64.6629 51.117 64.7539 50.909C64.8449 50.714 64.8319 50.103 64.8319 49.895C64.8319 49.401 64.8319 48.894 64.8319 48.4C64.8319 47.841 64.8059 47.269 64.8969 46.71C64.9489 46.359 65.1179 46.008 65.6379 45.943C66.3659 45.852 67.1069 45.904 67.8349 45.904C68.1729 45.904 68.5109 46.008 68.6409 46.372C68.8359 46.944 68.7709 47.529 68.7579 48.101C68.7319 48.972 68.7969 49.518 68.7709 50.298C68.8099 50.597 68.6799 51.091 69.2779 51C69.5769 51.013 69.7589 51.143 69.8369 50.857C69.9409 50.519 69.9149 49.648 69.9279 49.31C69.9539 48.244 69.9409 47.178 69.9409 46.112ZM72.944 46.593C72.905 45.54 73.334 44.344 74.023 43.629C74.842 42.784 76.051 42.498 77.091 43.525C78.235 44.656 78.378 46.32 77.923 47.828C77.598 48.894 76.48 49.856 75.466 49.869C74.218 49.882 73.204 48.647 72.996 47.412C72.957 47.126 72.957 46.84 72.944 46.593ZM75.544 41.627C74.53 41.705 73.62 42.134 72.931 43.031C72.008 44.201 71.579 45.527 71.709 47.022C71.826 48.4 72.333 49.583 73.438 50.48C74.01 50.948 74.66 51.221 75.401 51.234C76.298 51.26 77.117 50.961 77.767 50.337C78.963 49.18 79.509 47.75 79.366 46.073C79.275 44.994 78.924 44.045 78.3 43.161C77.65 42.238 76.792 41.679 75.544 41.627ZM82.3175 45.124C82.3565 44.708 82.2655 44.188 82.3695 43.668C82.4605 43.239 82.8765 42.94 83.3055 42.992C84.2675 43.122 84.8265 43.668 85.0475 44.578C85.3595 45.826 84.6705 47.126 83.2925 47.347C82.6945 47.451 82.3695 47.178 82.3305 46.489C82.2915 46.073 82.3175 45.644 82.3175 45.124ZM82.9155 41.757C82.6295 41.744 82.3955 41.757 82.1615 41.757C81.5245 41.757 81.1605 41.939 81.1475 42.771C81.1475 43.278 81.0955 43.772 81.1345 44.292C81.1995 45.033 81.1215 45.787 81.1475 46.541C81.1735 47.672 81.1475 48.79 81.1475 49.921C81.1475 50.103 81.1735 50.74 81.1475 50.961C81.1475 51.078 81.4465 51 81.7195 51.026C82.0705 51.065 82.2135 51.182 82.2655 50.883C82.3175 50.649 82.3045 49.908 82.3305 49.661C82.3565 49.284 82.4215 48.907 82.9805 48.777C83.1885 48.738 83.4095 48.699 83.6305 48.66C84.2285 48.569 84.8135 48.387 85.2165 47.932C86.2825 46.723 86.5425 45.306 86.0615 43.798C85.7625 42.849 85.1125 42.147 84.1115 41.848C83.6955 41.718 83.2795 41.77 82.9155 41.757Z" fill="#2B2725"/>
</svg>
